<svg xmlns="http://www.w3.org/2000/svg" fill="none" aria-label="Junior's Chimney" role="img" viewBox="0 0 64 64"><defs><linearGradient id="jcEmber" x1="32" x2="32" y1="58" y2="18" gradientUnits="userSpaceOnUse"><stop offset="0" stop-color="#D92E1B"/><stop offset=".45" stop-color="#FF6B1A"/><stop offset="1" stop-color="#FFC46B"/></linearGradient></defs><path stroke="currentColor" stroke-linejoin="round" stroke-width="3.4" d="M8 17.5 13.5 9.5h37L56 17.5Z"/><path stroke="currentColor" stroke-linejoin="round" stroke-width="3.4" d="M12.5 17.5v37h39v-37"/><path stroke="currentColor" stroke-width="2" d="M12.5 31h39M12.5 43h39" opacity=".38"/><path fill="url(#jcEmber)" d="M32 46.6c-4.6 0-7.6-3.1-7.6-7 0-3.6 2.4-5.9 4-8.5 1.2-2 1.7-4 1.4-6.1 3 1.3 5 3.5 6 6 1-1.3 1.4-2.7 1.3-4.3 2.5 2.6 4.5 6.3 4.5 10.4 0 5-3.4 9.5-9.6 9.5Z"/></svg>